<svg version="1.1" id="Layer_1" xmlns="http://www.w3.org/2000/svg" xmlns:xlink="http://www.w3.org/1999/xlink" x="0px" y="0px" enable-background="new 0 0 640 640" xml:space="preserve" viewBox="29.33 231.03 583.15 180.72">
<path fill="#ffffff" opacity="1.000000" stroke="none" d=" M120.459702,234.257065   C131.267471,228.298355 140.219528,230.679642 146.209717,240.963135   C155.014954,256.079224 163.748352,271.237427 172.439636,286.419342   C173.477203,288.231750 175.087677,289.904175 174.781662,292.742065   C170.500809,294.666595 165.645676,295.033844 161.041367,296.196167   C144.708374,300.319214 128.588501,305.012146 113.385193,312.435211   C109.463173,314.350159 105.882469,316.792847 102.554787,319.567078   C94.202637,326.530121 93.889091,336.261169 101.740639,343.804810   C106.381859,348.264008 112.181770,350.904816 117.853928,353.716705   C122.032372,355.788086 126.319366,357.657898 130.024628,360.569244   C136.926117,365.991943 137.588058,372.614319 131.560532,378.989044   C124.534966,386.419281 115.380081,390.662323 106.296600,394.801453   C93.106232,400.812012 79.513535,405.861603 65.644539,410.086151   C58.170975,412.362640 50.345005,412.043427 42.874229,410.653107   C31.315439,408.501953 25.844448,395.936218 31.739056,385.207764   C40.722855,368.856903 50.221169,352.788055 59.545551,336.625122   C77.110649,306.177734 94.701500,275.745209 112.298714,245.316360   C114.541664,241.437866 116.425735,237.283478 120.459702,234.257065  z"/>
<path fill="#ffffff" opacity="1.000000" stroke="none" d=" M158.273315,301.179352   C163.331970,299.349762 168.079468,297.789001 172.717316,295.951538   C175.720474,294.761749 177.632538,295.323059 179.289459,298.211670   C195.857300,327.094940 212.692825,355.826416 229.053833,384.825806   C236.359695,397.775208 228.107513,411.144989 213.228653,411.223175   C194.242355,411.322876 175.255157,411.261444 156.268356,411.249084   C154.822037,411.248138 153.294769,411.524384 151.955460,410.605011   C151.664917,408.126160 153.817795,407.506195 155.036880,406.384094   C161.449615,400.481232 167.329956,394.163910 171.298965,386.308502   C178.633392,371.792358 175.139008,358.795288 161.437073,349.996307   C153.515869,344.909515 144.459076,342.399231 135.753784,339.103546   C131.251450,337.399017 126.541595,336.086395 122.836792,332.766907   C118.877197,329.219025 118.504509,325.691040 121.578148,321.325287   C124.033951,317.837128 127.388199,315.431946 131.055130,313.367889   C139.643051,308.533783 148.695145,304.747101 158.273315,301.179352  z"/>
<path fill="#ffffff" opacity="1.000000" stroke="none" d=" M556.022461,344.298126   C551.735535,344.298676 547.943970,344.298676 544.242188,344.298676   C542.827698,355.169830 551.743713,365.653107 562.781921,366.608093   C571.513123,367.363525 578.950073,365.051575 583.812378,357.125122   C584.517578,355.975433 585.258667,354.804810 586.815308,354.801025   C594.430298,354.782440 602.045349,354.792603 609.861816,354.792603   C610.108521,359.652466 608.144592,363.141235 606.012146,366.442566   C595.256042,383.094910 579.337708,388.877319 560.388123,386.998718   C540.360657,385.013214 525.807678,374.921692 519.724731,355.285095   C513.406921,334.890259 515.556946,315.400482 531.315857,299.695282   C545.280579,285.778229 562.750610,283.651947 580.972900,289.161224   C598.250122,294.384766 607.406982,307.335327 611.293457,324.448334   C612.333618,329.028595 612.196838,333.692657 612.439209,338.342590   C612.674561,342.858063 611.125183,344.446503 606.476746,344.381409   C589.826599,344.148224 573.171204,344.294678 556.022461,344.298126  M577.954529,311.468781   C570.169739,305.719116 561.716125,305.517883 553.580872,309.885468   C547.728882,313.027252 544.242615,318.476105 544.128052,326.127197   C557.959229,326.127197 571.292725,326.127197 585.010498,326.127197   C584.779358,320.270844 582.756836,315.620453 577.954529,311.468781  z"/>
<path fill="#ffffff" opacity="1.000000" stroke="none" d=" M353.659607,352.843262   C353.645752,333.203033 353.782379,314.040955 353.539825,294.883636   C353.480164,290.174072 355.155670,288.697510 359.595520,288.906158   C364.748901,289.148376 369.924347,289.038666 375.086975,288.929169   C378.905945,288.848175 380.357117,290.476471 380.322937,294.339081   C380.185791,309.832703 380.267883,325.328308 380.275757,340.823181   C380.276917,343.155609 380.249115,345.490753 380.346405,347.820007   C380.794769,358.551025 386.423615,364.584412 396.058136,364.717590   C406.840546,364.866638 414.321503,358.598358 414.633606,348.106903   C415.118927,331.793304 414.967316,315.460815 415.087372,299.136322   C415.102081,297.137207 415.149750,295.138092 415.142212,293.139130   C415.131134,290.209473 416.600739,288.970734 419.486298,288.994720   C424.983704,289.040436 430.493835,289.179840 435.976532,288.878235   C440.683380,288.619293 442.438080,290.243225 442.369446,295.134827   C442.124054,312.625763 442.253418,330.122040 442.248596,347.616272   C442.245758,357.946198 442.070251,368.281158 442.346222,378.603821   C442.471954,383.306549 440.992126,385.377594 436.120117,385.084259   C431.637878,384.814423 427.114960,384.827271 422.631256,385.085419   C418.122467,385.345001 416.056396,383.723541 416.654724,379.060638   C416.864441,377.426361 416.688232,375.742584 416.688232,373.239349   C403.710022,388.054443 388.296783,390.780334 371.311951,383.501129   C358.371948,377.955505 354.578217,366.299316 353.659607,352.843262  z"/>
<path fill="#ffffff" opacity="1.000000" stroke="none" d=" M270.133362,382.059418   C252.284256,372.103485 249.109283,354.185364 249.730301,338.664978   C249.829803,336.178375 251.392624,335.704132 253.435806,335.706299   C259.931763,335.713135 266.428986,335.775269 272.923187,335.666077   C276.368164,335.608154 277.110626,337.575714 277.148926,340.439941   C277.208923,344.923553 277.119019,349.405487 278.842499,353.718781   C281.554993,360.507050 287.937103,364.340424 295.625214,363.567841   C302.808655,362.846008 307.351562,358.604187 308.600220,351.180450   C309.261475,347.249054 309.676270,343.291443 309.664764,339.265228   C309.589905,313.114288 309.733734,286.962250 309.533081,260.812653   C309.496429,256.035706 310.870514,254.269333 315.732941,254.585144   C321.539001,254.962234 327.387939,254.759369 333.216431,254.676590   C336.135315,254.635132 337.426270,255.749329 337.416931,258.783478   C337.322388,289.597504 337.767944,320.422028 337.092102,351.222290   C336.651001,371.322754 322.561768,384.958344 301.642761,387.068451   C290.913544,388.150696 280.341675,387.157806 270.133362,382.059418  z"/>
<path fill="#ffffff" opacity="1.000000" stroke="none" d=" M512.173401,377.838379   C511.988007,384.721619 511.689209,385.128998 505.378204,385.268585   C498.073853,385.430115 490.726929,386.160980 483.516144,384.247070   C471.601166,381.084564 465.838562,373.980591 465.698090,361.622772   C465.520203,345.971771 465.486267,330.315308 465.712646,314.665863   C465.779480,310.045013 464.664673,308.130768 459.644104,308.252441   C449.915955,308.488190 449.837952,310.049011 449.927979,298.676300   C449.938507,297.344238 450.013641,296.004730 449.905914,294.681122   C449.551178,290.321564 451.606995,288.803345 455.838409,288.894867   C466.890594,289.133942 465.525665,289.376984 465.622223,278.793121   C465.666290,273.964386 465.741364,269.132080 465.605713,264.306946   C465.521667,261.315430 466.846710,259.997070 469.708527,259.995117   C475.868866,259.990906 482.029236,259.987701 488.189484,260.012390   C491.114746,260.024109 492.275055,261.574097 492.241547,264.450592   C492.167847,270.777191 492.431427,277.112579 492.194000,283.430725   C492.043091,287.445923 493.264160,289.314331 497.528717,288.976532   C500.837585,288.714417 504.186859,289.010895 507.514954,288.928558   C510.696198,288.849884 511.853119,290.419220 512.110352,293.456360   C513.367798,308.302277 513.414246,308.485748 498.681976,308.262573   C493.784271,308.188416 491.948944,309.369385 492.103210,314.619293   C492.479736,327.430389 492.198547,340.260040 492.240753,353.082031   C492.271210,362.319275 495.503998,365.236115 504.793365,364.567017   C512.125366,364.038940 512.126465,364.038910 512.159790,371.369293   C512.168823,373.367523 512.169006,375.365814 512.173401,377.838379  z"/>
</svg>